<?xml version="1.0" encoding="UTF-8" standalone="no"?>
<svg
   xmlns:dc="http://purl.org/dc/elements/1.1/"
   xmlns:cc="http://creativecommons.org/ns#"
   xmlns:rdf="http://www.w3.org/1999/02/22-rdf-syntax-ns#"
   xmlns:svg="http://www.w3.org/2000/svg"
   xmlns="http://www.w3.org/2000/svg"
   viewBox="0 0 4666.6665 2666.6667"
   height="2666.6667"
   width="4666.6665"
   xml:space="preserve"
   id="svg2"
   version="1.1"><metadata
     id="metadata8"><rdf:RDF><cc:Work
         rdf:about=""><dc:format>image/svg+xml</dc:format><dc:type
           rdf:resource="http://purl.org/dc/dcmitype/StillImage" /></cc:Work></rdf:RDF></metadata><defs
     id="defs6"><clipPath
       id="clipPath286"
       clipPathUnits="userSpaceOnUse"><path
         id="path284"
         d="m 5748.84,11179.2 c -64.05,29.8 -24.59,574.9 -24.59,574.9 l -542.58,107.4 c -37.68,-178.5 -17.99,-490.4 -85.32,-503.7 -2.18,-0.5 101.79,-206.8 260.78,-250.2 169.2,-46.2 394.06,70.5 391.71,71.6 z" /></clipPath><linearGradient
       id="linearGradient296"
       spreadMethod="pad"
       gradientTransform="matrix(55.6666,741.992,741.992,-55.6666,5409.82,11098.3)"
       gradientUnits="userSpaceOnUse"
       y2="0"
       x2="1"
       y1="0"
       x1="0"><stop
         id="stop288"
         offset="0"
         style="stop-opacity:1;stop-color:#dcabb0" /><stop
         id="stop290"
         offset="0.0830927"
         style="stop-opacity:1;stop-color:#dcabb0" /><stop
         id="stop292"
         offset="0.966486"
         style="stop-opacity:1;stop-color:#be858f" /><stop
         id="stop294"
         offset="1"
         style="stop-opacity:1;stop-color:#bd848e" /></linearGradient><clipPath
       id="clipPath400"
       clipPathUnits="userSpaceOnUse"><path
         id="path398"
         d="m 28240.3,9639.7 v 0 c 67,249.5 132.5,467.6 138,478.5 0.2,0.3 -0.8,5.9 -2.7,15.8 4.9,-2.1 9.8,-4.3 14.6,-6.7 -6.1,-2.8 -10.3,-5.9 -11.9,-9.1 -5.5,-10.9 -71,-229 -138,-478.5" /></clipPath></defs><g
     transform="matrix(1.3333333,0,0,-1.3333333,0,2666.6667)"
     id="g10"><g
       transform="scale(0.1)"
       id="g12"><g
         transform="scale(2.14724)"
         id="g14"><path
           id="path16"
           style="fill:#ffffff;fill-opacity:1;fill-rule:nonzero;stroke:none"
           d="M 16300,0 H 0 V 9314.29 H 16300 V 0" /></g><g
         transform="scale(2.04834)"
         id="g18"><path
           id="path20"
           style="fill:#f1f2f9;fill-opacity:1;fill-rule:nonzero;stroke:none"
           d="M 16300,861.871 H 9537.93 c 31.98,3.417 57.12,30.707 57.12,63.563 V 3603.95 c 0.54,-1.71 1.08,-3.47 1.61,-5.23 l 783.94,-2468.63 c 51.9,-163.305 204.3,-268.219 367.5,-268.219 38.4,0 77.3,5.759 115.7,17.964 l 1080.8,343.205 c 201.7,64.05 314.3,281.45 250.3,483.17 l -784,2468.64 c -51.8,163.3 -204.2,268.22 -367.5,268.22 -38.3,0 -77.3,-5.76 -115.7,-17.97 l -246.9,-78.4 -0.4,-0.15 -589.8,-187.27 -238.12,-75.63 -5.52,-1.75 c -40.42,-12.84 -77.28,-31.84 -109.89,-55.66 -68.45,-50.04 -118,-121.32 -142.02,-201.14 v 2924.34 c 0,35.17 -28.75,63.94 -63.95,63.94 H 5774.49 c -35.15,0 -63.91,-28.77 -63.91,-63.94 V 925.434 c 0,-32.856 25.1,-60.146 57.12,-63.563 H 5518.87 L 5434.8,2609.53 H 4959.68 4358.02 L 4317.26,861.871 H 849.519 V 9038.97 H 16300 V 861.871 M 2662.94,3074.98 c 1.27,-3.37 2.52,-6.73 3.79,-10.1 329.31,-869.83 811.45,-1858.44 811.45,-1858.44 h 377.67 C 3790.48,1563.07 3249,3309.9 3068.41,3888.37 h 0.33 c 0,0 -8.76,29.64 -6.73,473.17 0.05,12.4 118.93,521.89 116.26,577.95 -1.67,35.11 -4.97,70.48 -9.62,105.74 l 3.29,-2.42 c 1.43,67.1 122.31,344.63 122.31,344.63 -185.77,157.81 -259.94,168.15 -276.19,168.15 -2.45,0 -3.58,-0.23 -3.58,-0.23 v -0.03 l -0.02,0.05 c 0,0 -40.43,8.86 -216.83,13.67 -24.14,-38.1 -68.97,-79.19 -150.3,-81.27 -1.8,-0.05 -3.59,-0.07 -5.36,-0.07 -67.75,0 -114.82,33.91 -140.78,71.45 -118.09,-12.12 -260.46,-63.43 -345.68,-128.02 l -0.09,-0.05 c 0,0 -73.31,-94.51 -118.67,-312.57 l 216.64,-97.83 c 8.68,-55.78 15.98,-114.95 20.75,-176.03 9.46,-120.44 9.04,-248.15 -9.92,-371.57 -10.23,-66.1 -75.69,-160.42 -161.9,-375.43 -6.65,-16.5 -13.37,-33.68 -20.21,-51.65 0,0 0.88,-0.24 2.48,-0.78 -15.99,-44.28 -48.65,-157.2 -65.32,-373.81 -2.75,-35.69 -5.07,-74.01 -6.83,-115.22 l -112.28,7.03 c -1.48,10.99 -3.2,22.17 -5.18,33.3 -14.87,83.77 -48.14,182.63 -122.4,187.27 -1.8,0.1 -3.61,0.2 -5.45,0.2 -0.83,0 -1.68,-0.05 -2.52,-0.05 -43.73,-1.22 -78.48,-31 -103.31,-88.51 -12.41,-28.76 -21.12,-61.52 -27.22,-94.18 l -25.72,13.57 -248.51,131.09 -374.363,-603.08 335.383,-176.92 -41.36,-310.64 777.21,-48.43 c 42.2,-374.16 116.67,-834.29 240.31,-1396.21 0,0 90.06,0 236.34,0 v 0 0 0 0 h 127.06 c 8.02,0 5.65,1038.06 2.51,1864.34 m 10689.86,736.45 c -20.9,-15.67 -33,-25.92 -33,-25.92 0,0 -203.2,-1135.26 351.4,-1513.08 0,0 8.7,-0.59 26.1,-0.59 107.8,0 548.3,23.73 1292.2,366.06 l -46,210.12 c 0,0 -30.7,0.97 -83.4,0.97 -192.8,0 -679.4,-13.67 -1030.8,-141.23 2.5,8.64 25.4,218.13 55.5,356.77 v 0.1 c 5.5,25.44 11.1,52.14 16.5,79.77 33,167.36 61.6,368.79 50.9,528.87 10.9,-1.61 21.5,-2.44 31.5,-2.44 34.9,0 62.6,10.01 72.1,31.15 v 0 c 2,4.25 3.2,8.98 3.6,14.2 0,0.35 0,0.69 0,1.08 0.1,62.93 -345.1,567.29 -345.1,648.77 0,0.24 0,0.49 0,0.73 1.3,47.5 23.8,149.64 50.5,254.7 18.3,12.54 35.9,25.82 52.8,39.69 96.3,-139.19 190,-255.63 213.4,-273.74 50.4,-38.86 867,-111.6 867,-111.6 18.5,-14.01 44.5,-20.8 73.1,-20.8 30.8,0 64.7,7.86 96,23.09 60.4,29.39 47,16.11 90.4,36.13 43.4,20.02 -5.3,61.81 -5.3,61.81 -41.5,30.56 -80.8,40.81 -115,40.81 -69.5,0 -117.4,-42.42 -117.4,-42.42 -112.6,44.96 -758.9,252.01 -758.9,252.01 -25.4,104.42 -67.2,227.06 -108.2,336.77 64.1,129.67 85,244.59 66.9,277.83 -44.2,81.07 -171.5,162.1 -94,523.75 77.4,361.66 -337.3,442.69 -337.3,442.69 -13.2,1.16 -25.8,1.71 -38,1.71 -339.5,0 -312.8,-431.93 -570.3,-431.93 -399.6,0 -562.6,-152.48 -629,-279.71 l -6.7,5.68 c -6,5.25 -12,10.46 -18.1,15.67 l -47.6,317.08 -342.7,-17.33 c -72.3,50.75 -119.6,81.55 -119.6,81.55 0,0 46.3,139.25 -114.4,189.14 0,0 -11.9,1.95 -26.8,1.95 -25.1,0 -58.5,-5.56 -56.6,-35.51 3.1,-47.66 46.3,-49.3 49.2,-116.47 2.9,-67.17 28.5,-85.2 72.3,-105.26 l 24.3,-24.07 -158.7,-8.03 -108.9,120.42 -203.1,224.49 -1042.3,-899.64 56.7,-62.64 v -0.01 l 54.5,-60.26 523.7,-578.96 309.3,308 14.9,-125.81 1225.3,61.95 -51.3,341.49 c 1.2,-0.49 2.1,-0.8 2.7,-0.99 0.5,-0.19 0.8,-0.25 0.8,-0.25 0,0 413.6,-108.03 436.8,-112.66 v 0 c 5,-0.99 8.4,-4.36 10.8,-8.99 0,-0.15 0.1,-0.3 0.2,-0.45 v 0 0 0 0 c 7.9,-16.95 1.6,-50.01 1.6,-50.01 v 0.06 c -36.4,-134.7 -25.2,-279.51 -12.8,-335.26 16.6,-74.84 8.3,-440.65 66.5,-619.43 21.1,-64.59 56.2,-111.26 100.2,-142.99 0.5,-1.66 1.2,-3.47 1.8,-5.18 l 6.1,-0.29 c 51.4,-34.17 113.8,-49.06 179.4,-49.06 24.4,0 49.3,2.05 74.3,5.95 M 3520,6925.16 c -49.16,0 -89.37,-38.71 -89.37,-86.04 v -556.34 c 0,-47.33 40.21,-86.05 89.37,-86.05 h 145.77 l -353.59,-344.96 704.28,344.96 h 1156.91 c 49.16,0 89.39,38.72 89.39,86.05 v 556.34 c 0,47.33 -40.23,86.04 -89.39,86.04 H 3520 m 9371.8,-676.04 v 0 l -487.4,475.52 h 200.9 c 67.8,0 123.3,53.37 123.3,118.61 v 766.89 c 0,65.24 -55.5,118.61 -123.3,118.61 h -2279.1 c -67.7,0 -123.1,-53.37 -123.1,-118.61 v -766.89 c 0,-65.24 55.4,-118.61 123.1,-118.61 H 11921 l 970.8,-475.52 m -11002.74,-2685.2 -110.4,6.88 -98.43,6.15 -36.37,19.19 c 5.6,29.83 13.5,59.56 24.62,85.29 22.57,52.28 54.6,79.33 95.17,80.45 0.81,0 1.61,0.05 2.41,0.05 58.43,0 98.55,-58.68 119.21,-174.53 1.4,-7.86 2.66,-15.67 3.79,-23.48 m 10628.64,1876.62 -30.7,26.28 c 26.6,50.68 65.3,98.55 120.2,120.84 0,0 -58.8,-64.28 -89.5,-147.12" /></g><g
         transform="scale(1.20576)"
         id="g22"><path
           id="path24"
           style="fill:#595aa3;fill-opacity:1;fill-rule:nonzero;stroke:none"
           d="M 16191.4,1463.48 H 9809.66 c -59.72,0 -108.57,48.93 -108.57,108.64 v 9893.78 c 0,59.7 48.85,108.6 108.57,108.6 h 6381.74 c 59.7,0 108.6,-48.9 108.6,-108.6 V 1572.12 c 0,-59.71 -48.9,-108.64 -108.6,-108.64" /></g><g
         transform="scale(1.19066)"
         id="g26"><path
           id="path28"
           style="fill:#dbdff0;fill-opacity:1;fill-rule:nonzero;stroke:none"
           d="M 16300,1916.67 H 10030.8 V 11569.9 H 16300 V 1916.67" /></g><path
         id="path30"
         style="fill:#373484;fill-opacity:1;fill-rule:nonzero;stroke:none"
         d="m 15517.3,2017.6 c 0,87.4 70.8,158.2 158.2,158.2 87.4,0 158.3,-70.8 158.3,-158.2 0,-87.4 -70.9,-158.3 -158.3,-158.3 -87.4,0 -158.2,70.9 -158.2,158.3" /><g
         transform="scale(1.20477)"
         id="g32"><path
           id="path34"
           style="fill:#a2431d;fill-opacity:1;fill-rule:nonzero;stroke:none"
           d="m 11042.5,3976.35 c 0,0 136.5,-512.3 1366.3,-386.38 1229.7,126 1832.4,564.84 2499.7,441.91 667.4,-122.85 1391.5,410.37 1024.9,530.47 -366.7,120.11 -3611.3,118.86 -4890.9,-586" /></g><g
         transform="scale(1.17767)"
         id="g36"><path
           id="path38"
           style="fill:#cf852b;fill-opacity:1;fill-rule:nonzero;stroke:none"
           d="m 16299.9,4667.5 c -15.2,17.07 -1958.7,2199.51 -2090.5,2387.08 -132.2,188.34 59.4,1777.56 59.4,1777.56 29.1,202.54 587.8,381.5 587.8,381.5 l -539.2,756.21 c 0,0 -302.3,-204.67 -809.5,-380.11 l -155.2,1037.36 -247.1,-37 161.1,-1076.37 -0.1,-0.01 c -172.3,-49.09 -362.1,-92.25 -566.8,-122.88 -211.5,-31.65 -413,-48.51 -600.3,-55.27 v 0 l -161.6,1079.83 -247.2,-37 156.6,-1046.28 c -618.6,5.96 -1028.6,114.14 -1028.6,114.14 l -185.9,-810.63 c 0,0 749.6,-138.24 855.2,-218.88 264.3,-201.75 609.2,-1201.6 705.9,-1494.21 16.9,-51.12 26.2,-80.67 26.2,-80.67 l -923.5,-2774.02 c 0,0 920.4,-456.75 1902,135.43 981.5,592.1 3101.4,464.14 3101.4,464.14 l -0.1,0.08" /></g><g
         transform="scale(1.13762)"
         id="g40"><path
           id="path42"
           style="fill:#b3b7d9;fill-opacity:1;fill-rule:nonzero;stroke:none"
           d="m 16194.4,2949.23 h -4794.7 c -58,0 -105.6,47.47 -105.6,105.48 0,58.1 47.6,105.57 105.6,105.57 h 4794.7 c 58.1,0 105.6,-47.47 105.6,-105.57 0,-58.01 -47.5,-105.48 -105.6,-105.48" /></g><path
         id="path44"
         style="fill:#cbcfe7;fill-opacity:1;fill-rule:nonzero;stroke:none"
         d="m 15116.8,12884.7 h -2209.1 c -66,0 -120.1,54 -120.1,120.1 0,66 54.1,120 120.1,120 h 2209.1 c 66,0 120,-54 120,-120 0,-66.1 -54,-120.1 -120,-120.1" /><g
         transform="scale(1.16566)"
         id="g46"><path
           id="path48"
           style="fill:#cbcfe7;fill-opacity:1;fill-rule:nonzero;stroke:none"
           d="m 16297.6,10526.7 -972.9,3.3 2.5,733.1 199.3,-0.6 c 47.2,133.8 158.1,227.9 287,227.9 0.3,0 0.6,0 0.9,0 129.2,-0.5 239.8,-95.4 286.2,-229.9 v 0 l 199.4,-0.6 -2.4,-733.2 m -932,690.2 -2.1,-640.9 895.6,-3 2.2,640.9 -147.7,0.5 -36.1,0.1 -528.1,1.8 -36.2,0.1 -147.6,0.5 m 447.8,232 c -109.2,0 -204,-76.2 -248.8,-186.6 l 498,-1.6 c -44.2,110.9 -138.8,187.8 -248.4,188.2 -0.3,0 -0.5,0 -0.8,0" /></g><g
         transform="scale(1.16133)"
         id="g50"><path
           id="path52"
           style="fill:#cbcfe7;fill-opacity:1;fill-rule:nonzero;stroke:none"
           d="m 16297.9,10633.4 -855.7,2.8 2.1,603.3 855.7,-2.9 -2.1,-603.2" /></g><g
         transform="scale(1.13762)"
         id="g54"><path
           id="path56"
           style="fill:#b3b7d9;fill-opacity:1;fill-rule:nonzero;stroke:none"
           d="m 16194.4,2546.28 h -4794.7 c -58,0 -105.6,47.47 -105.6,105.57 0,58.02 47.6,105.49 105.6,105.49 h 4794.7 c 58.1,0 105.6,-47.47 105.6,-105.49 0,-58.1 -47.5,-105.57 -105.6,-105.57" /></g><g
         transform="scale(2.0911)"
         id="g58"><path
           id="path60"
           style="fill:#575ba3;fill-opacity:1;fill-rule:nonzero;stroke:none"
           d="m 16260.5,844.866 h -5608.3 c -2.5,0 -5,-0.241 -7.3,-0.622 H 5341.05 4634.33 1998.04 c -3.17,0.716 -6.46,1.147 -9.86,1.147 H 539.787 c -22.572,0 -41.041,-16.738 -41.041,-37.157 v -2.344 c 0,-20.42 18.469,-37.157 41.041,-37.157 H 1988.18 c 2.35,0 4.63,0.239 6.88,0.573 h 2639.27 706.72 5311.15 484.4 5123.9 c 21.7,0 39.5,16.499 39.5,36.632 v 2.296 c 0,20.18 -17.8,36.632 -39.5,36.632" /></g><g
         transform="scale(1.54052)"
         id="g62"><path
           id="path64"
           style="fill:#595aa3;fill-opacity:1;fill-rule:nonzero;stroke:none"
           d="M 15882.1,1626.21 14445,1169.87 c -268.2,-85.17 -557.3,64.59 -642.5,332.74 l -1042.4,3282.41 c -68,214.41 14.1,442.26 186.7,568.45 43.4,31.67 92.4,56.93 146.2,74 l 7.3,2.34 316.6,100.55 784.3,249 0.4,0.2 328.4,104.25 c 268.2,85.17 557.3,-64.59 642.5,-332.75 l 1042.3,-3282.4 c 85.2,-268.22 -64.6,-557.28 -332.7,-642.45" /></g><g
         transform="scale(1.52674)"
         id="g66"><path
           id="path68"
           style="fill:#dbdff0;fill-opacity:1;fill-rule:nonzero;stroke:none"
           d="m 15941.8,1709.19 -1337.7,-424.82 c -229.8,-72.97 -477.6,55.35 -550.6,285.18 l -553.8,1743.98 -76.9,242.08 -61.6,194.01 -223.1,702.61 -110.2,347.07 -18.5,58.23 c -73,229.84 55.3,477.69 285.2,550.65 l 271.6,86.26 415,131.79 651.1,206.71 c 110.9,35.31 226.1,23.58 323.7,-23.84 40.8,-19.78 78.5,-45.78 111.6,-77.22 36,-34.13 66.5,-74.67 89.5,-120.59 10.1,-20.17 18.7,-41.39 25.8,-63.53 L 16227,2259.78 c 73,-229.84 -55.3,-477.62 -285.2,-550.59" /></g><g
         transform="scale(1.35417)"
         id="g70"><path
           id="path72"
           style="fill:#595aa3;fill-opacity:1;fill-rule:nonzero;stroke:none"
           d="m 16216.9,6380.8 -892.2,-283.27 c -53.3,-16.99 -110.8,12.77 -127.7,66.09 -16.9,53.32 12.9,110.84 66.2,127.75 l 892.1,283.35 c 53.4,16.91 110.8,-12.85 127.8,-66.17 16.9,-53.31 -12.9,-110.84 -66.2,-127.75" /></g><g
         transform="scale(1.43488)"
         id="g74"><path
           id="path76"
           style="fill:#cf852b;fill-opacity:1;fill-rule:nonzero;stroke:none"
           d="m 14419.8,4871.36 241,76.38 59,18.68 1161.8,368.25 331.6,-1046.01 -1461.8,-463.31 z m 610.1,612.73 c 178.9,56.66 373.4,-19.3 503.3,-177.02 l -812.8,-257.65 c 15.5,203.85 130.7,378.01 309.5,434.67 z m 890.9,-54.22 -325.5,-103.14 c -145.8,194.93 -376,291.87 -586.8,225.1 -210.9,-66.83 -343.1,-278.7 -350.1,-522.06 l -325.5,-103.15 379.3,-1196.55 1587.8,503.25 -379.2,1196.55" /></g><g
         transform="scale(1.42314)"
         id="g78"><path
           id="path80"
           style="fill:#cf852b;fill-opacity:1;fill-rule:nonzero;stroke:none"
           d="m 15986.5,5335.66 -1402.8,-444.65 313.3,-988.94 1403,444.65 -313.5,988.94" /></g><g
         transform="scale(1.44844)"
         id="g82"><path
           id="path84"
           style="fill:#b3b7d9;fill-opacity:1;fill-rule:nonzero;stroke:none"
           d="m 14789.1,3200.21 c -33.4,0 -64.5,21.47 -75.2,54.82 -13,41.22 10.1,85.61 51.2,98.66 l 1423.2,451.03 c 7.8,2.49 15.7,3.66 23.5,3.66 33.4,0 64.5,-21.47 75.2,-54.81 v 0 c 13,-41.22 -10.1,-85.61 -51.2,-98.66 l -1423.2,-451.04 c -7.8,-2.48 -15.7,-3.66 -23.5,-3.66" /></g><g
         transform="scale(1.45933)"
         id="g86"><path
           id="path88"
           style="fill:#b3b7d9;fill-opacity:1;fill-rule:nonzero;stroke:none"
           d="m 14800.3,2792.24 c -33.1,0 -64,21.24 -74.4,54.41 -13,40.84 9.8,84.9 50.7,97.85 l 1412.6,447.74 c 7.7,2.47 15.6,3.63 23.4,3.63 33.1,0 64,-21.31 74.4,-54.41 13,-40.91 -9.8,-84.97 -50.7,-97.92 l -1412.5,-447.67 c -7.8,-2.47 -15.7,-3.63 -23.5,-3.63" /></g><g
         transform="scale(1.47129)"
         id="g90"><path
           id="path92"
           style="fill:#b3b7d9;fill-opacity:1;fill-rule:nonzero;stroke:none"
           d="m 14812.5,2351.68 c -32.8,0 -63.5,21.07 -73.9,53.97 -12.9,40.51 9.8,84.21 50.4,97.05 l 1401,444.11 c 7.7,2.44 15.5,3.6 23.3,3.6 32.8,0 63.5,-21.14 73.9,-53.97 12.8,-40.58 -9.9,-84.28 -50.4,-97.12 l -1401.1,-444.04 c -7.7,-2.44 -15.5,-3.6 -23.2,-3.6" /></g><g
         transform="scale(1.39421)"
         id="g94"><path
           id="path96"
           style="fill:#b3b7d9;fill-opacity:1;fill-rule:nonzero;stroke:none"
           d="m 15878,1703.48 c -34.6,0 -67,22.3 -77.9,56.94 -13.6,42.83 10.3,88.95 53.1,102.5 l 330.7,104.86 c 8.2,2.59 16.4,3.8 24.6,3.8 34.6,0 67,-22.3 77.9,-56.95 13.6,-42.82 -10.4,-88.93 -53.1,-102.49 l -330.7,-104.86 c -8.2,-2.58 -16.4,-3.8 -24.6,-3.8" /></g><g
         transform="scale(1.49238)"
         id="g98"><path
           id="path100"
           style="fill:#b3b7d9;fill-opacity:1;fill-rule:nonzero;stroke:none"
           d="m 15905.9,1931.28 c -32.4,0 -62.6,20.84 -72.9,53.2 -12.7,40 9.7,83.09 49.7,95.75 l 309,97.97 c 7.5,2.41 15.2,3.55 22.8,3.55 32.4,0 62.6,-20.84 72.8,-53.2 12.7,-40.01 -9.6,-83.09 -49.6,-95.76 l -309,-97.96 c -7.6,-2.41 -15.3,-3.55 -22.8,-3.55" /></g><path
         id="path102"
         style="fill:#373484;fill-opacity:1;fill-rule:nonzero;stroke:none"
         d="M 10159.1,1765.4 H 8843.2 l 83.49,3579.8 H 10159.1 V 1765.4" /><path
         id="path104"
         style="fill:#595aa3;fill-opacity:1;fill-rule:nonzero;stroke:none"
         d="M 11304.5,1765.4 H 9274.24 l -119.09,3579.8 h 1977.15 l 172.2,-3579.8" /><path
         id="path106"
         style="fill:#8e91c3;fill-opacity:1;fill-rule:nonzero;stroke:none"
         d="m 10209.9,4543.6 c -277.99,0 -425.04,165.8 -499.96,307.8 -83.07,157.3 -96.44,314.9 -96.98,321.5 -0.82,10.5 6.95,19.6 17.39,20.5 0.49,0 0.97,0 1.45,0 9.82,0 18.17,-7.5 18.97,-17.4 0.13,-1.6 13.5,-157.5 93.24,-307.9 100.82,-190.3 257.29,-286.5 465.29,-286.5 9.5,0 19.1,0.2 28.8,0.6 151,6.2 264.1,56 336.2,147.9 134.8,172.1 82.8,437.9 82.2,440.6 -2,10.2 4.6,20.2 14.8,22.3 1.3,0.3 2.6,0.4 3.8,0.4 8.9,0 16.8,-6.2 18.6,-15.1 2.4,-11.6 56.2,-285.3 -89.4,-471.4 -79.2,-101.2 -201.9,-155.9 -364.7,-162.7 -10,-0.4 -19.9,-0.6 -29.7,-0.6" /><path
         id="path108"
         style="fill:#2f2c60;fill-opacity:1;fill-rule:nonzero;stroke:none"
         d="M 9062.89,5341.8 V 1765.4 h 211.35 l -119.08,3579.8 -92.27,-3.4" /><path
         id="path110"
         style="fill:#a2431d;fill-opacity:1;fill-rule:nonzero;stroke:none"
         d="M 11780.1,1765.5 H 9886.41 l 120.09,2505 h 1773.6 v -2505" /><path
         id="path112"
         style="fill:#cf852b;fill-opacity:1;fill-rule:nonzero;stroke:none"
         d="m 13428.4,1762.5 h -2921.7 l -171.4,2508 h 2845.3 l 247.8,-2508" /><path
         id="path114"
         style="fill:#a2431d;fill-opacity:1;fill-rule:nonzero;stroke:none"
         d="m 11852.3,3504.1 c -278,0 -425,165.8 -500,307.7 -83,157.3 -96.4,315 -96.9,321.6 -0.9,10.4 6.9,19.6 17.4,20.4 10.4,0.8 19.5,-6.9 20.4,-17.4 0.1,-1.5 13.5,-157.4 93.2,-307.9 105.4,-198.9 271.7,-295.1 494.1,-285.9 151,6.2 264.1,56 336.2,148 134.8,172.1 82.8,437.9 82.2,440.5 -2,10.3 4.6,20.3 14.9,22.4 10.3,2.1 20.2,-4.5 22.3,-14.8 2.4,-11.6 56.2,-285.3 -89.4,-471.3 -79.2,-101.2 -201.9,-156 -364.6,-162.7 -10.1,-0.4 -20,-0.6 -29.8,-0.6" /><path
         id="path116"
         style="fill:#903719;fill-opacity:1;fill-rule:nonzero;stroke:none"
         d="M 10202.6,4268.2 V 1765.5 h 304.1 l -171.4,2505 -132.7,-2.3" /><g
         transform="scale(1.47173)"
         id="g118"><path
           id="path120"
           style="fill:#373484;fill-opacity:1;fill-rule:nonzero;stroke:none"
           d="m 14879.3,6780.8 -472.4,522.22 1450.6,1252.1 L 16300,8066 14879.3,6780.8" /></g><g
         transform="scale(1.50328)"
         id="g122"><path
           id="path124"
           style="fill:#595aa3;fill-opacity:1;fill-rule:nonzero;stroke:none"
           d="M 14969.6,6193.41 14256,6982.29 15605.1,8286.82 16300,7518.59 14969.6,6193.41" /></g><g
         transform="scale(1.50726)"
         id="g126"><path
           id="path128"
           style="fill:#595aa3;fill-opacity:1;fill-rule:nonzero;stroke:none"
           d="m 16225.8,8070.68 c -97.4,107.73 -245.9,77.07 -355.1,31.1 -121,-50.97 -217.8,-129.11 -221.9,-132.4 -6.4,-5.2 -9,-13.05 -5.8,-17.53 3.2,-4.47 10.9,-3.92 17.3,1.27 1,0.77 96.7,77.99 212.6,126.62 153.2,64.3 267.7,50.69 340.3,-40.33 49.2,-61.83 59.8,-131.98 31.3,-208.5 -53.2,-143.22 -226.7,-263.55 -228.5,-264.74 -6.7,-4.62 -10.2,-12.48 -7.9,-17.55 2.4,-5.1 9.7,-5.48 16.5,-0.87 7.6,5.2 186.4,129.04 244,283.81 31.4,84.19 20.4,160.65 -32.8,227.27 -3.2,4.12 -6.6,8.08 -10,11.85" /></g><g
         transform="scale(1.31477)"
         id="g130"><path
           id="path132"
           style="fill:#908fac;fill-opacity:1;fill-rule:nonzero;stroke:none"
           d="m 16300,7983.4 -85,93.89 85,-93.89 v 0" /></g><g
         transform="scale(1.43918)"
         id="g134"><path
           id="path136"
           style="fill:#333072;fill-opacity:1;fill-rule:nonzero;stroke:none"
           d="m 14890.9,7293.24 -77.6,85.78 1451.5,1313.04 35.2,-36.2 -1409.1,-1362.62" /></g><g
         transform="scale(1.94659)"
         id="g138"><path
           id="path140"
           style="fill:#a2431d;fill-opacity:1;fill-rule:nonzero;stroke:none"
           d="m 16300,3372.15 -779.1,-305.14 -354.2,1049.99 729.7,285.73 403.6,-1030.58" /></g><g
         transform="scale(2.02763)"
         id="g142"><path
           id="path144"
           style="fill:#cf852b;fill-opacity:1;fill-rule:nonzero;stroke:none"
           d="m 16300,3491.17 -1154,-451.96 -455.6,964.08 1123.8,440.12 485.8,-952.24" /></g><g
         transform="scale(1.93046)"
         id="g146"><path
           id="path148"
           style="fill:#a2431d;fill-opacity:1;fill-rule:nonzero;stroke:none"
           d="m 15971.9,4610.82 c -116.7,-41.55 -146,-154.42 -149.7,-243.41 -4.2,-98.64 21,-187.01 22.1,-190.74 1.7,-5.85 6.7,-9.68 11.3,-8.6 4.5,1.14 6.8,6.74 5.2,12.59 -0.3,0.88 -25.1,88.32 -21.1,182.7 5.4,124.79 56.4,202.34 151.5,230.57 64.7,19.17 121.9,8.81 170,-30.82 90.2,-74.13 120.3,-227.56 120.6,-229.07 1.2,-5.95 5.9,-10.46 10.6,-10.04 4.7,0.36 7.6,5.49 6.5,11.44 -1.3,6.69 -32.2,164.73 -129.6,244.92 -53,43.62 -115.2,55.22 -184.8,34.6 -4.3,-1.29 -8.5,-2.69 -12.6,-4.14" /></g><g
         transform="scale(1.88402)"
         id="g150"><path
           id="path152"
           style="fill:#903719;fill-opacity:1;fill-rule:nonzero;stroke:none"
           d="m 15754.1,4285.3 416.6,-1063.79 129.3,50.63 -489.9,1036.3 -56,-23.14" /></g><g
         transform="scale(1.48842)"
         id="g154"><path
           id="path156"
           style="fill:#a2431d;fill-opacity:1;fill-rule:nonzero;stroke:none"
           d="m 16300,6544.84 -1092.8,-55.29 -3.8,1449.19 1023.5,51.75 73.1,-1445.65" /></g><g
         transform="scale(1.57529)"
         id="g158"><path
           id="path160"
           style="fill:#cf852b;fill-opacity:1;fill-rule:nonzero;stroke:none"
           d="m 16300,6227.72 -1593.2,-80.55 -162.5,1362.85 1551.4,78.43 204.3,-1360.73" /></g><g
         transform="scale(1.51071)"
         id="g162"><path
           id="path164"
           style="fill:#a2431d;fill-opacity:1;fill-rule:nonzero;stroke:none"
           d="m 15987.6,8103.45 c -158.2,-3.1 -239.5,-128 -280.1,-234.3 -45,-117.88 -50.3,-235.19 -50.6,-240.12 -0.2,-7.77 4.3,-14.48 10.3,-14.98 5.9,-0.47 11,5.39 11.3,13.15 0.1,1.16 5.4,117.17 48.6,229.9 57.1,149.03 150.4,222.36 277.1,218.04 86,-2.96 151.2,-38.7 193.5,-106.25 79.3,-126.4 53.5,-324.54 53.3,-326.52 -1.1,-7.65 2.8,-15.02 8.7,-16.46 5.9,-1.42 11.5,3.59 12.5,11.24 1.2,8.62 27.8,212.67 -57.8,349.35 -46.5,74.34 -117.2,113.64 -209.9,116.82 -5.8,0.2 -11.4,0.24 -16.9,0.13" /></g><g
         transform="scale(1.42132)"
         id="g166"><path
           id="path168"
           style="fill:#903719;fill-opacity:1;fill-rule:nonzero;stroke:none"
           d="m 16039.7,8318.11 76.5,-1512.46 183.8,9.29 -180.1,1508.66 -80.2,-5.49" /></g><path
         id="path170"
         style="fill:#53529e;fill-opacity:1;fill-rule:nonzero;stroke:none"
         d="m 14767.7,4273.4 c 2.7,0.8 5.4,1.6 8.1,2.4 -1.4,-0.5 -4.1,-1.5 -8.1,-2.4" /><g
         transform="scale(1.21169)"
         id="g172"><path
           id="path174"
           style="fill:#53529e;fill-opacity:1;fill-rule:nonzero;stroke:none"
           d="m 15940.3,2359.27 c -154.9,145.42 -374.6,553.12 -374.6,553.12 0,0 -223.2,-86.17 -764.5,-100.2 -541.4,-14.11 -833.2,68.5 -833.2,68.5 -154.6,-229.43 -205.8,-462.82 -360.3,-594.29 -129,-109.85 -599.3,-116.04 -599.3,-116.04 0,0 551.5,-695.14 1115.7,-704.64 580.6,-9.81 1092.8,0 1092.8,0 0,0 639.5,209.88 1083.1,581.76 0,0 -322.4,276.88 -359.7,311.79" /></g><g
         transform="scale(1.15667)"
         id="g176"><path
           id="path178"
           style="fill:#2f2c60;fill-opacity:1;fill-rule:nonzero;stroke:none"
           d="m 15747.2,7325.09 c -94.2,44.95 -203.2,42.79 -278.7,32.77 18.1,21.61 56,31.72 56,31.72 -47.5,3.63 -149.2,-50.66 -149.2,-50.66 -672.8,205.07 -706.3,-766.25 -676.4,-989.22 29.8,-222.88 -198.5,-312.88 -526.4,-513.8 -625.6,-383.52 -650.2,-838.44 -650.2,-838.44 5.3,-2.6 10.8,-5.62 16.8,-9.08 28.2,56.88 87.2,164.26 142.1,183.8 -1.8,-5.1 -56,-146.02 -74.3,-225.82 202.2,-132.02 584.2,-429.25 850.7,-640.37 -4.4,44.69 -7.2,108.41 6.8,143.17 l 44.3,-183.72 c 142.5,-113.34 241,-193.23 241,-193.23 -29.6,179.83 736.6,1194.99 1151.6,1512.36 94.8,163.75 112.6,442.31 113.8,464.18 -2.5,-220.03 -31.1,-345.39 -59.5,-416.8 344.4,366.05 41.5,1574.09 -208.4,1693.14" /></g><g
         transform="scale(1.10848)"
         id="g180"><path
           id="path182"
           style="fill:#595aa3;fill-opacity:1;fill-rule:nonzero;stroke:none"
           d="m 15736.4,7389.91 c 0,0 259.3,256.66 563.6,-6.86 0,0 -181.3,38.16 -563.6,6.86" /></g><g
         transform="scale(1.13236)"
         id="g184"><path
           id="path186"
           style="fill:#373484;fill-opacity:1;fill-rule:nonzero;stroke:none"
           d="m 15308,6307.38 c 0,0 -79.6,166.2 -128.5,359.6 -35,138.04 -1.1,661.55 525.3,624.46 0,0 152.3,-4.07 301.5,-89.82 118.6,-68.26 293.7,-221.39 143.7,-686.88 l -36.3,-156.23 -805.7,-51.13" /></g><g
         transform="scale(1.15189)"
         id="g188"><path
           id="path190"
           style="fill:#cc9198;fill-opacity:1;fill-rule:nonzero;stroke:none"
           d="m 16161.3,3346.85 c 138.7,1519.85 78.1,2136.58 78.1,2136.58 0,0 -218.8,52.78 -508.8,142.02 -30.9,135.26 -16.3,415.58 -16.3,415.58 l -505.9,-11.28 c -16.6,-121.2 -9.2,-303.42 -25.4,-406.64 -202.1,-71.45 -437.7,-69.37 -667.4,-176.23 0,0 284.2,-1167.3 386.3,-2137.8 11.1,-105.39 1247.2,-95.84 1259.4,37.77" /></g><g
         transform="scale(1.12418)"
         id="g192"><path
           id="path194"
           style="fill:#d4a6ad;fill-opacity:1;fill-rule:nonzero;stroke:none"
           d="m 16160.4,6129.51 c -137.2,-130.4 -307.7,-304.31 -673.3,19.22 -71.6,63.33 -66.5,160.29 -70.2,299.68 -4.6,164.92 -44,266.06 -25.3,361.06 22.2,113.69 119.6,164.74 321.6,181.73 370.7,31.05 557.8,-52.92 532.4,-236.79 -56.8,-410.34 54.4,-492.18 -85.2,-624.9" /></g><g
         transform="scale(1.09461)"
         id="g196"><path
           id="path198"
           style="fill:#373484;fill-opacity:1;fill-rule:nonzero;stroke:none"
           d="m 16300,7207.88 c 0,0 -163,-352.73 -391.3,-429.38 -228.4,-76.55 -433.8,115.39 -433.8,115.39 0,0 210.4,-16.54 327.9,205.09 59.7,112.37 368.9,293.26 497.2,108.9" /></g><g
         transform="scale(1.13263)"
         id="g200"><path
           id="path202"
           style="fill:#373484;fill-opacity:1;fill-rule:nonzero;stroke:none"
           d="m 15742.6,6945.33 c 0,0 218.1,3.97 267.7,-69.13 49.6,-73.02 56.3,-154.6 81.2,-195.74 25,-41.23 20.7,-87.32 20.7,-87.32 0,0 187.8,480.56 -245.6,384.86 -31.3,-6.89 -124,-32.67 -124,-32.67" /></g><g
         transform="scale(1.20617)"
         id="g204"><path
           id="path206"
           style="fill:#595aa3;fill-opacity:1;fill-rule:nonzero;stroke:none"
           d="m 16300,3886.01 c 0,0 -344.1,-68.81 -501.4,-260.49 0,0 -164.6,366.45 -182.4,363.88 l -0.3,-0.08 c -16.5,-6.64 -168.8,-766.89 -149.1,-820.95 19.6,-54.05 174.4,-238.44 194.2,-277.74 8.7,-17.41 -92,-90.28 -235.9,-165.97 -181.2,-95.35 -430.7,-195.33 -617.1,-195.33 -330,0 -856.5,154.95 -849.2,259.74 0.1,1.25 0.2,2.66 0.5,3.98 7.4,36.81 229.4,276.99 239.2,390.08 9.7,111.92 -166.8,811.99 -189.5,809.67 l -0.5,-0.25 c -19.7,-16.33 -178.7,-399.78 -178.7,-399.78 0,0 -322.8,244.16 -465.3,258.84 0,0 316.1,1174.87 490.7,1361.66 0,0 96,45.1 376.1,94.93 0,0 198.2,-616 561.9,-881.38 0,0 407.2,312.88 484.1,872.51 0,0 385.3,-88.46 418.1,-127.85 32.7,-39.29 604.6,-1285.47 604.6,-1285.47" /></g><g
         transform="scale(1.07128)"
         id="g208"><path
           id="path210"
           style="fill:#53529e;fill-opacity:1;fill-rule:nonzero;stroke:none"
           d="m 16255.7,3517.49 c -40.7,-64.41 -406.3,-403.91 -539.2,-377.21 0.1,1.4 0.2,2.98 0.6,4.48 8.3,41.44 258.2,311.87 269.3,439.19 10.9,126.02 -187.9,914.24 -213.3,911.62 12.1,29.87 34,63.95 73.1,92.04 92.3,66.37 453.8,-1000.02 409.5,-1070.12" /></g><g
         transform="scale(1.15953)"
         id="g212"><path
           id="path214"
           style="fill:#53529e;fill-opacity:1;fill-rule:nonzero;stroke:none"
           d="m 16045.6,2834.26 c -104,171.45 -179.3,417.15 -189.3,448.8 -15.4,48.56 204.5,846.21 311.9,887.17 43.1,16.48 65.2,2.33 76.2,-20.35 l -0.4,-0.09 c -17,-6.9 -175.6,-797.73 -155,-853.96 20.4,-56.23 181.4,-248.04 201.9,-288.91 9.1,-18.12 -95.6,-93.92 -245.3,-172.66" /></g><g
         transform="scale(1.24164)"
         id="g216"><path
           id="path218"
           style="fill:#cc9198;fill-opacity:1;fill-rule:nonzero;stroke:none"
           d="m 16009.6,2082.48 c -14.4,-15.06 -29.9,-29.72 -46.3,-43.89 -128.6,-111.23 -503,-233.32 -862.9,-331.26 -113,-30.84 -224.6,-59.19 -326.8,-84.16 -84.4,-26.34 -255.8,-80.7 -439.5,-144.65 -259.2,-90.2 -372.5,-47.11 -501,-24.4 -128.4,22.63 -273.4,-67.17 -463.6,2.34 -190.3,69.58 -142.1,444.25 -142.1,444.25 64.4,42.28 314.9,54.44 484.4,-67.33 169.6,-121.7 396.9,-99.06 396.9,-99.06 8.6,-0.89 29.3,9.5 57.8,27.21 0,0 219.4,128.47 618.7,460.61 58.2,48.4 120.2,101.23 185.9,158.5 151.8,132.48 290.4,291.22 432.4,402.85 82.3,64.75 165.6,113.56 253.3,132.16 407.2,86.42 552.1,-71.84 552.1,-71.84 0,0 91.1,-458.99 -199.3,-761.33" /></g><g
         transform="scale(1.07366)"
         id="g220"><path
           id="path222"
           style="fill:#d4a6ad;fill-opacity:1;fill-rule:nonzero;stroke:none"
           d="m 16300,2414.55 v -629.43 c -135.6,45.45 -253.8,83.17 -329.2,106.92 -114.6,30.83 -238.1,65.48 -361.6,102.83 -338.3,101.98 -675.7,223.62 -825,337.54 -10.9,8.47 -20.9,16.76 -29.8,25.14 -370.1,346.2 -228.2,960.64 -228.2,960.64 0,0 120.4,153.59 555.9,53.65 109.4,-25.05 220.4,-85.87 331.5,-165.97 148.5,-107.11 297.4,-248.97 443.4,-386.44 49.5,-46.57 97.6,-91.46 144.3,-134.58 108.8,-100.5 209.6,-191.22 298.7,-270.3" /></g><g
         transform="scale(1.09008)"
         id="g224"><path
           id="path226"
           style="fill:#cc9198;fill-opacity:1;fill-rule:nonzero;stroke:none"
           d="m 16238.2,1695.38 c 21.4,-7.52 42.1,-14.31 61.8,-20.36 -276.1,-90.64 -401.7,-43.67 -543.5,-18.72 -146.3,25.78 -311.5,-76.51 -528.2,2.66 -216.6,79.26 -161.8,506.02 -161.8,506.02 62.5,41 278.4,57.15 460.3,-24.4 -45.4,-68.25 -96.6,-130.27 -152.8,-175.77 121.7,-36.78 243.3,-70.91 356.1,-101.27 107.1,-33.67 301.2,-95.87 508.1,-168.16" /></g><g
         transform="scale(1.09223)"
         id="g228"><path
           id="path230"
           style="fill:#c4541c;fill-opacity:1;fill-rule:nonzero;stroke:none"
           d="m 16300,2132.79 c -128.4,-90.92 -195.7,-130.29 -195.7,-130.29 -32.3,-20.14 -55.8,-31.95 -65.6,-30.94 0,0 -258.4,-25.73 -451.2,112.61 -28.6,20.6 -59.4,37.9 -91.3,52.19 26.5,39.55 51,81.3 73.4,123.05 101.5,189.52 159.6,379.77 159.6,379.77 215.9,-199.31 399.6,-360.09 522,-464.83 17.6,-15.01 33.8,-28.93 48.8,-41.56" /></g><g
         transform="scale(1.16787)"
         id="g232"><path
           id="path234"
           style="fill:#b24520;fill-opacity:1;fill-rule:nonzero;stroke:none"
           d="m 16300,1885.4 c -6.9,-92.56 -33.8,-315.52 -134.3,-348.06 -174.9,-56.77 -312.3,34.16 -456.8,7.62 -134.3,-24.66 -245.2,-59 -494.6,18.49 8.3,2.66 16.8,5.48 25.4,8.48 195.2,67.98 377.5,125.78 467.3,153.79 108.5,26.54 227.2,56.68 347.3,89.47 82.1,22.35 164.9,45.81 245.7,70.21" /></g><g
         transform="scale(1.07366)"
         id="g236"><path
           id="path238"
           style="fill:#cc9198;fill-opacity:1;fill-rule:nonzero;stroke:none"
           d="m 16300,3401.65 -53.1,-340.71 c -498.5,-6.24 -1355.8,412.42 -1355.8,412.42 -121.6,188.24 106,812 126.3,866.3 199.6,-16.3 372.5,-204.82 485.9,-278.96 l -130.4,-274.48 c 45.4,-17.23 927.1,-384.57 927.1,-384.57" /></g><g
         transform="scale(1.22126)"
         id="g240"><path
           id="path242"
           style="fill:#cc9198;fill-opacity:1;fill-rule:nonzero;stroke:none"
           d="m 14954.5,2990.52 46.7,-299.52 c 438.2,-5.49 1191.9,362.57 1191.9,362.57 106.9,165.49 -102.8,730.81 -120.7,778.55 -168.1,-33.08 -354.1,-127.58 -443.7,-223.22 l 140.9,-280.28 c -40,-15.15 -815.1,-338.1 -815.1,-338.1" /></g><g
         transform="scale(1.16166)"
         id="g244"><path
           id="path246"
           style="fill:#cf852b;fill-opacity:1;fill-rule:nonzero;stroke:none"
           d="m 16300,2734.01 h -1806.4 v 1142.5 H 16300 v -1142.5" /></g><g
         transform="scale(1.10285)"
         id="g248"><path
           id="path250"
           style="fill:#e6c86d;fill-opacity:1;fill-rule:nonzero;stroke:none"
           d="m 16135.9,3481.54 c 0,45.33 36.7,82.06 82,82.06 45.4,0 82.1,-36.73 82.1,-82.06 0,-45.34 -36.7,-82.16 -82.1,-82.16 -45.3,0 -82,36.82 -82,82.16" /></g><g
         transform="scale(1.01527)"
         id="g252"><path
           id="path254"
           style="fill:#595aa3;fill-opacity:1;fill-rule:nonzero;stroke:none"
           d="m 16300,3390.23 c -413.8,-143.61 -593.6,-664.06 -665.5,-923.69 -11.7,8.96 -22.2,17.72 -31.6,26.59 -391.4,366.11 -241.4,1015.89 -241.4,1015.89 0,0 127.4,162.42 588,56.73 115.7,-26.49 233,-90.81 350.5,-175.52" /></g><g
         transform="scale(1.24164)"
         id="g256"><path
           id="path258"
           style="fill:#595aa3;fill-opacity:1;fill-rule:nonzero;stroke:none"
           d="m 16009.6,2082.48 c -102.1,250.4 -454.7,571.02 -606.1,701.01 82.3,64.75 165.6,113.56 253.3,132.16 407.2,86.42 552.1,-71.84 552.1,-71.84 0,0 91.1,-458.99 -199.3,-761.33" /></g><g
         transform="scale(1.15026)"
         id="g260"><path
           id="path262"
           style="fill:#c4541c;fill-opacity:1;fill-rule:nonzero;stroke:none"
           d="m 16300,1842.97 c -122,-33.3 -242.5,-63.9 -352.7,-90.85 -91.1,-28.43 -276.2,-87.11 -474.4,-156.14 -279.9,-97.37 -402.2,-50.86 -540.8,-26.34 -138.6,24.43 -295.2,-72.5 -500.5,2.52 -205.4,75.11 -153.4,479.54 -153.4,479.54 69.6,45.64 339.9,58.77 522.9,-72.67 183.1,-131.37 428.4,-106.94 428.4,-106.94 9.4,-0.95 31.7,10.26 62.4,29.39 0,0 236.9,138.66 667.8,497.19 43,-122.84 159.6,-414.17 340.3,-555.7" /></g><g
         transform="scale(1.09223)"
         id="g264"><path
           id="path266"
           style="fill:#b24520;fill-opacity:1;fill-rule:nonzero;stroke:none"
           d="m 16300,2132.79 c -128.4,-90.92 -195.7,-130.29 -195.7,-130.29 -32.3,-20.14 -55.8,-31.95 -65.6,-30.94 0,0 -258.4,-25.73 -451.2,112.61 -28.6,20.6 -59.4,37.9 -91.3,52.19 26.5,39.55 51,81.3 73.4,123.05 141,-47.52 426,-125.07 681.6,-85.06 17.6,-15.01 33.8,-28.93 48.8,-41.56" /></g><path
         id="path268"
         style="fill:#daa9ae;fill-opacity:1;fill-rule:nonzero;stroke:none"
         d="m 9022.44,11205.2 c -378.7,48.7 -474.28,-295.8 -474.28,-295.8 0,0 -470.25,-193.9 -629.22,-265.6 -147.19,-66.5 -595.44,-287.2 -595.44,-287.2 0,0 -833.74,990.5 -1148.84,1016.3 l 53.93,-756.9 c 0,0 371.21,-405.1 519.14,-535.6 99.41,-87.6 470.23,-336.8 470.23,-336.8 0,0 350.69,115.6 825.94,463.8 149.17,109.3 574.97,465.5 574.97,465.5 116.72,-16.2 218.87,14.3 312.99,148.9 94.12,134.7 120.03,83 179.86,183.2 81.17,136 -45.83,186.6 -89.28,200.2" /><path
         id="path270"
         style="fill:#dcabb0;fill-opacity:1;fill-rule:nonzero;stroke:none"
         d="m 4782.29,2784.9 185.26,-780.3 277.48,1.6 10.18,778.7 h -472.92" /><path
         id="path272"
         style="fill:#c4541c;fill-opacity:1;fill-rule:nonzero;stroke:none"
         d="m 5108.23,2071.1 c -313.91,13.5 -325.94,-305.7 -325.94,-305.7 h 266.52 118.83 256.45 c 0,0 -1.96,319.2 -315.86,305.7" /><path
         id="path274"
         style="fill:#dcabb0;fill-opacity:1;fill-rule:nonzero;stroke:none"
         d="m 7190.68,2751.6 452.83,-747 277.48,1.6 -223.4,848.1 -506.91,-102.7" /><path
         id="path276"
         style="fill:#c4541c;fill-opacity:1;fill-rule:nonzero;stroke:none"
         d="m 7784.19,2071.1 c -313.91,13.6 -325.93,-305.7 -325.93,-305.7 h 266.52 118.82 256.45 c 0,0 -1.95,319.3 -315.86,305.7" /><path
         id="path278"
         style="fill:#b24318;fill-opacity:1;fill-rule:nonzero;stroke:none"
         d="m 5746.01,13037.9 c -95.8,54.4 -210.59,60.4 -290.89,55.6 20.69,21.4 61.34,29.1 61.34,29.1 -49.79,7.4 -160.92,-42 -160.92,-42 -692.61,266.9 -801.47,-752.9 -786.91,-989.8 14.45,-236.9 -232.74,-314.3 -593.09,-501 -687.53,-356.1 -747.92,-833.1 -747.92,-833.1 5.36,-3.1 10.95,-6.7 16.9,-10.8 34.11,57.8 104.33,166.3 163.55,182.7 -2.24,-5.3 -69.98,-149.4 -95.25,-232 202.83,-154.3 582.26,-496.2 846.71,-738.6 -1.17,47.4 0.71,114.6 18.02,150.1 l 32.67,-196.7 c 141.5,-130.1 239.09,-221.6 239.09,-221.6 -17.48,191.4 865.91,1201.8 1326.8,1504.4 112.2,165.2 152.08,457 155.06,479.9 -19.36,-231.3 -58.94,-361.1 -94.31,-434.2 390.26,359.2 163.06,1653.7 -90.85,1798" /><g
         id="g280"><g
           clip-path="url(#clipPath286)"
           id="g282"><path
             id="path298"
             style="fill:url(#linearGradient296);fill-opacity:1;fill-rule:nonzero;stroke:none"
             d="m 5748.84,11179.2 c -64.05,29.8 -24.59,574.9 -24.59,574.9 l -542.58,107.4 c -37.68,-178.5 -17.99,-490.4 -85.32,-503.7 -2.18,-0.5 101.79,-206.8 260.78,-250.2 169.2,-46.2 394.06,70.5 391.71,71.6" /></g></g><path
         id="path300"
         style="fill:#575ba3;fill-opacity:1;fill-rule:nonzero;stroke:none"
         d="m 5195.21,12889.7 c 0,0 291.77,269.5 579.49,-18.5 0,0 -191.61,22.3 -579.49,18.5" /><path
         id="path302"
         style="fill:#c4541c;fill-opacity:1;fill-rule:nonzero;stroke:none"
         d="m 5159.28,11911.3 c 0,0 -150.17,237.2 -186.21,440.1 -25.74,144.9 48.04,681.8 587.6,604.5 0,0 156.71,-15.5 304.01,-115 117.14,-79.1 286.21,-249.9 97.18,-718.4 l -49.11,-158.3 -753.47,-52.9" /><path
         id="path304"
         style="fill:#575ba3;fill-opacity:1;fill-rule:nonzero;stroke:none"
         d="m 6285.13,7964.7 h 0.68 c 0,0 -17.94,60.7 -13.79,969.2 0.12,25.4 243.61,1069 238.14,1183.9 -3.42,71.9 -10.18,144.3 -19.69,216.5 l 6.73,-4.9 c 2.94,137.4 250.53,705.9 250.53,705.9 -437.9,372 -573.06,344 -573.06,344 v -0.1 l -0.05,0.1 c 0,0 -82.81,18.1 -444.13,28 -49.44,-78.1 -141.27,-162.2 -307.87,-166.5 -144.66,-3.7 -244.78,67.3 -299.34,146.2 -241.88,-24.8 -533.52,-129.9 -708.06,-262.2 l -0.19,-0.1 c 0,0 -150.17,-193.6 -243.09,-640.2 l 443.76,-200.4 c 17.78,-114.3 32.74,-235.5 42.51,-360.6 19.37,-246.7 18.52,-508.3 -20.33,-761.1 -20.95,-135.4 -155.04,-328.6 -331.62,-769 -13.63,-33.8 -27.39,-69 -41.4,-105.8 0,0 1.8,-0.5 5.08,-1.6 -32.74,-90.7 -99.65,-322 -133.8,-765.7 -63.91,-830.3 -16.92,-2377.7 568.94,-5040.5 0,0 184.49,0 484.12,0 h 260.25 c 16.43,0 11.59,2126.3 5.14,3818.8 2.6,-6.9 5.17,-13.8 7.78,-20.7 C 6136.9,4496.2 7124.48,2471.2 7124.48,2471.2 h 773.6 C 7764.17,3201.7 6655.04,6779.8 6285.13,7964.7" /><path
         id="path306"
         style="fill:#51539e;fill-opacity:1;fill-rule:nonzero;stroke:none"
         d="m 7124.48,2471.2 c 0,0 -987.58,2025 -1662.11,3806.7 -19.21,246.9 -51.47,601.7 103.43,725 0,0 1645.43,-3046.6 1558.68,-4531.7" /><path
         id="path308"
         style="fill:#51539e;fill-opacity:1;fill-rule:nonzero;stroke:none"
         d="m 5189.2,2479.8 c -299.63,0 -484.12,0 -484.12,0 C 4119.22,5142.6 4072.23,6690 4136.14,7520.3 4281.49,6780.4 5112,2563.9 5189.2,2479.8" /><path
         id="path310"
         style="fill:#cf852b;fill-opacity:1;fill-rule:nonzero;stroke:none"
         d="m 3522.99,5385 1036.24,-64.7 54.57,1933.4 -970.51,60.5 -120.3,-1929.2" /><path
         id="path312"
         style="fill:#e6c86d;fill-opacity:1;fill-rule:nonzero;stroke:none"
         d="m 2620.86,5438.9 1598.8,-99.7 214.21,1925.7 -1556.95,97.1 -256.06,-1923.1" /><path
         id="path314"
         style="fill:#a2431d;fill-opacity:1;fill-rule:nonzero;stroke:none"
         d="m 3630.83,7750.5 c 152.12,-9.5 220.27,-212 250.73,-383.6 33.78,-190.2 29.39,-378.4 29.18,-386.3 -0.32,-12.5 -5.25,-23.1 -11.03,-23.7 -5.77,-0.6 -10.2,8.9 -9.89,21.4 0.04,1.8 4.31,188 -28.15,369.9 -42.91,240.5 -126.74,360.7 -249.12,357.4 -83.11,-2.3 -148.71,-57.7 -194.95,-164.8 -86.57,-200.4 -77.85,-518.7 -77.75,-521.9 0.38,-12.3 -4,-24 -9.76,-26.1 -5.8,-2.1 -10.76,6.1 -11.14,18.4 -0.44,13.8 -9.54,341.7 83.96,558.3 50.85,117.8 122.04,178.8 211.6,181.3 5.54,0.1 10.98,0 16.32,-0.3" /><path
         id="path316"
         style="fill:#c8831a;fill-opacity:1;fill-rule:nonzero;stroke:none"
         d="m 4386.23,5331.1 -166.31,10.4 213.95,1923.4 72.55,-6.4 -120.19,-1927.4" /><path
         id="path318"
         style="fill:#cc9027;fill-opacity:1;fill-rule:nonzero;stroke:none"
         d="m 4219.92,5341.5 h -0.12 l 214.07,1923.4 -213.95,-1923.4" /><path
         id="path320"
         style="fill:#a2431d;fill-opacity:1;fill-rule:nonzero;stroke:none"
         d="m 2618.49,6123.1 688.27,-363.1 632.3,1304.4 -644.6,340 -675.97,-1281.3" /><path
         id="path322"
         style="fill:#cf852b;fill-opacity:1;fill-rule:nonzero;stroke:none"
         d="m 2018.61,6437.6 1061.91,-560.2 739.04,1250 -1034.12,545.5 -766.83,-1235.3" /><path
         id="path324"
         style="fill:#a2431d;fill-opacity:1;fill-rule:nonzero;stroke:none"
         d="m 3420.22,7706.4 c 101.04,-53.3 85.29,-212.6 53.3,-339.3 -35.46,-140.4 -96.39,-267.6 -98.96,-273 -4.05,-8.4 -10.7,-14.1 -14.84,-12.8 -4.12,1.4 -4.22,9.3 -0.16,17.7 0.6,1.3 60.79,127.1 94.6,261.4 44.7,177.6 24.4,285.6 -60.25,321 -57.5,24 -119.39,6.3 -183.94,-52.7 -120.83,-110.2 -212.84,-330.5 -213.75,-332.7 -3.53,-8.5 -10.12,-15.1 -14.72,-14.8 -4.61,0.3 -5.48,7.4 -1.96,16 3.97,9.6 98.65,236.4 229.21,355.7 71.03,64.9 138.45,84.6 200.4,58.7 3.84,-1.6 7.53,-3.3 11.07,-5.2" /><path
         id="path326"
         style="fill:#993d1b;fill-opacity:1;fill-rule:nonzero;stroke:none"
         d="m 3191.86,5820.6 -110.47,58.3 738.17,1248.5 47.62,-26.6 -675.32,-1280.2" /><path
         id="path328"
         style="fill:#af5e22;fill-opacity:1;fill-rule:nonzero;stroke:none"
         d="m 3081.39,5878.9 h -0.07 l 738.24,1248.5 -738.17,-1248.5" /><path
         id="path330"
         style="fill:#51539e;fill-opacity:1;fill-rule:nonzero;stroke:none"
         d="m 4858.54,9190.8 c -71.85,-101.7 -209.58,-719.7 -552.28,-797.4 176.59,440.4 310.67,633.6 331.62,769 38.84,252.8 39.69,514.4 20.33,761.1 114.72,201.1 200.33,338.9 200.33,338.9 9.01,32.6 182.3,568.4 237.84,89.4 55.41,-479.1 -157.59,-1047.3 -237.84,-1161" /><path
         id="path332"
         style="fill:#daa9ae;fill-opacity:1;fill-rule:nonzero;stroke:none"
         d="m 5819.96,11610.4 c 0,0 -677.99,-11.2 -678.46,411.1 -0.46,422.3 -88.29,705.3 344.57,730.3 432.87,25 517.15,-136.1 551.59,-277 34.44,-140.9 -41.35,-850.7 -217.7,-864.4" /><path
         id="path334"
         style="fill:#c4541c;fill-opacity:1;fill-rule:nonzero;stroke:none"
         d="m 6017.5,12709.6 c -104.62,126.8 -183.75,99.3 -228.16,61.2 -64.11,95.8 -188.79,89 -308.79,51.2 -159.15,-50.3 -297.22,-92 -349.9,-325.3 -45.99,-203.7 -214.76,-300.2 -214.76,-300.2 0,0 123.57,-76.3 408.46,-3.1 224.2,57.7 386.9,376.8 446.06,510.1 40.3,-35.8 125.39,-118.6 150.88,-199.7 33.8,-107.6 49,-329 113.53,-321.4 0,0 139.85,336.7 -17.32,527.2" /><path
         id="path336"
         style="fill:#373481;fill-opacity:1;fill-rule:nonzero;stroke:none"
         d="m 9137.9,11227.5 -252.59,173.5 c -2.16,1.5 -4.42,2.6 -6.77,3.4 l -0.18,0.1 -47.67,19.5 -232.42,-733.9 203.3,-164.6 36.51,-15.9 h 0.09 l 0.51,-0.2 h 0.03 c 16.5,-6.7 37.5,3.9 46.29,25.5 l 263.1,644.8 c 7.54,18.4 3.24,38.6 -10.2,47.8" /><path
         id="path338"
         style="fill:#575ba3;fill-opacity:1;fill-rule:nonzero;stroke:none"
         d="m 8546.38,10733.5 241.04,-201.8 c 16.99,-14.2 43.48,-3.8 53.64,21.1 l 263.11,644.8 c 7.53,18.5 3.23,38.7 -10.21,47.9 l -252.59,173.4 c -17.21,11.9 -41.86,1 -51.52,-22.7 l -251.54,-616.4 c -7.08,-17.4 -3.76,-36.4 8.07,-46.3" /><path
         id="path340"
         style="fill:#e3c763;fill-opacity:1;fill-rule:nonzero;stroke:none"
         d="m 8585.54,10812.5 237.39,-198.7 238.62,584.8 -248.78,170.8 -227.23,-556.9" /><path
         id="path342"
         style="fill:#373481;fill-opacity:1;fill-rule:nonzero;stroke:none"
         d="m 8679.16,10678.1 c 3.3,11.7 -1.41,24.2 -10.5,27.9 -9.1,3.8 -19.16,-2.7 -22.46,-14.5 -3.3,-11.7 1.4,-24.3 10.5,-28 9.1,-3.7 19.15,2.8 22.46,14.6" /><path
         id="path344"
         style="fill:#daa9ae;fill-opacity:1;fill-rule:nonzero;stroke:none"
         d="M 4645.6,10049.5 C 4591.9,9696 4523.1,9230.3 4523,9164.9 4522.8,9020.4 4331.8,8709.8 4140.9,8435.3 3950,8160.8 3759.1,7922.4 3759.1,7922.4 l 2.5,-21.7 c 18.3,-101.9 -53.1,-234.6 -168,-322 -114.8,-87.5 -76.4,-74.6 -156.7,-138.4 -80.3,-63.8 -113.3,70 -113.3,70 -56.3,330.7 227.8,444 227.8,444 244.4,499.5 563.1,1254.4 563.1,1254.4 44.1,861.7 73.8,1167.8 85.2,1263.2 l 416,-187.8 29.9,-234.6" /><g
         transform="scale(1.91372)"
         id="g346"><path
           id="path348"
           style="fill:#dcabb0;fill-opacity:1;fill-rule:nonzero;stroke:none"
           d="m 15828,3026.99 472,33.75 -15.9,-120.49 -361.3,-138.95 -94.8,225.69" /></g><g
         transform="scale(1.94621)"
         id="g350"><path
           id="path352"
           style="fill:#c4541c;fill-opacity:1;fill-rule:nonzero;stroke:none"
           d="m 15851.5,3007.07 166.1,52.51 282.4,-413.01 c 0,0 -257.9,-21.32 -448.5,360.5" /></g><g
         transform="scale(1.70469)"
         id="g354"><path
           id="path356"
           style="fill:#dcabb0;fill-opacity:1;fill-rule:nonzero;stroke:none"
           d="m 16114.1,1911.08 185.9,-495.33 -136.3,-6.46 -245.3,364.41 195.7,137.38" /></g><g
         transform="scale(1.71034)"
         id="g358"><path
           id="path360"
           style="fill:#c4541c;fill-opacity:1;fill-rule:nonzero;stroke:none"
           d="m 16207.6,1608.05 92.4,-175.41 -405.4,-399.74 c 0,0 -76,284.56 313,575.15" /></g><g
         transform="scale(1.73176)"
         id="g362"><path
           id="path364"
           style="fill:#373482;fill-opacity:1;fill-rule:nonzero;stroke:none"
           d="m 15486.4,4559.52 c 0,0 -669.3,-1022.02 -656,-1486.41 0,0 51.7,-417.61 884.2,-1510.59 l 255.4,200.89 c 0,0 -197.8,996.5 -543.9,1346.66 0,0 826.3,808.49 850.1,1161.31 23.8,352.82 -789.8,288.14 -789.8,288.14" /></g><g
         transform="scale(1.88366)"
         id="g366"><path
           id="path368"
           style="fill:#575ba3;fill-opacity:1;fill-rule:nonzero;stroke:none"
           d="m 16300,2868.52 c -939.2,-432.14 -1433.5,-397.42 -1433.5,-397.42 -603.1,410.85 -382.2,1645.36 -382.2,1645.36 0,0 317.6,268.95 525.3,189.74 38.2,-14.55 72.7,-40.93 100.9,-82.93 116.5,-173.96 50.2,-605.57 -11.8,-890.71 -32.7,-150.77 -57.7,-378.68 -60.4,-388.07 486.6,176.62 1211.6,152.52 1211.6,152.52 l 50.1,-228.49" /></g><g
         transform="scale(1.75965)"
         id="g370"><path
           id="path372"
           style="fill:#51539e;fill-opacity:1;fill-rule:nonzero;stroke:none"
           d="m 16175.3,4520.9 c 124.7,-186.23 53.8,-648.26 -12.5,-953.49 l -71.8,-288.97 c 30.8,120.19 -188.9,1210.41 -188.9,1210.41 l 165.2,120.82 c 41,-15.58 77.9,-43.82 108,-88.77" /></g><g
         transform="scale(1.77989)"
         id="g374"><path
           id="path376"
           style="fill:#c4541c;fill-opacity:1;fill-rule:nonzero;stroke:none"
           d="m 15530,5191.95 c 0,0 -439.6,456.06 -815.6,733.47 -25.7,69.53 -39.7,161.99 -39.7,161.99 -21.1,-38.51 -17.8,-88.21 -10.9,-125.52 -102.1,71.96 -197.6,127.99 -275.9,154.73 -26.4,152.99 120.8,313.79 120.8,313.79 -126.4,-51.25 -177.6,-219.92 -194.4,-297.2 -13.6,1.11 -26.3,0.71 -37.9,-1.24 0,0 -12.7,516.63 776.3,516.63 307.1,0 263.1,533.39 700.1,495.11 0,0 477.2,-93.25 388.1,-509.45 -89.1,-416.21 57.4,-509.46 108.3,-602.76 50.8,-93.29 -165.6,-746.28 -719.2,-839.55" /></g><g
         transform="scale(1.75328)"
         id="g378"><path
           id="path380"
           style="fill:#ce939a;fill-opacity:1;fill-rule:nonzero;stroke:none"
           d="m 15973.8,5250.55 c 102.5,205.1 191.6,866.87 191.6,866.87 0,0 -225.6,157.08 -145,456.83 l -313.5,-8.03 c 0,0 -3.8,-303.16 -157.4,-329.13 l -107.1,20.22 c 0,0 -627.8,-347.37 -146.1,-1753.76 l 1003.7,-54.69 c 0,0 -428.8,596.59 -326.2,801.69" /></g><g
         transform="scale(1.91021)"
         id="g382"><path
           id="path384"
           style="fill:#dcabb0;fill-opacity:1;fill-rule:nonzero;stroke:none"
           d="m 16156.6,4587.44 c 64.8,31.52 50.4,17.28 96.9,38.74 46.5,21.46 -5.7,66.28 -5.7,66.28 -134.8,99.46 -249.2,-1.73 -249.2,-1.73 -120.7,48.21 -813.8,270.23 -813.8,270.23 -68.3,280.84 -246.7,684.24 -246.7,684.24 0,0 -405.9,51.14 -377.6,-159.1 28.3,-210.24 431.1,-739.72 485.1,-781.45 54,-41.67 929.6,-119.67 929.6,-119.67 41.3,-31.09 116.6,-29.11 181.4,2.46" /></g><g
         transform="scale(1.68532)"
         id="g386"><path
           id="path388"
           style="fill:#dcabb0;fill-opacity:1;fill-rule:nonzero;stroke:none"
           d="m 14242.7,7360.2 c 3.7,-57.93 56.3,-59.93 59.8,-141.56 3.5,-81.64 34.5,-103.55 87.8,-127.93 l 880.4,-872.97 C 15533.3,6109.61 16300,6078.8 16300,6078.8 l -117.5,405.82 c -189.2,97.63 -888.3,46.68 -888.3,46.68 -310.8,313.31 -811.1,639.81 -811.1,639.81 0,0 56.2,169.24 -139.1,229.88 0,0 -105,17.13 -101.3,-40.79" /></g><g
         transform="scale(1.76729)"
         id="g390"><path
           id="path392"
           style="fill:#e6c86d;fill-opacity:1;fill-rule:nonzero;stroke:none"
           d="m 15895.3,5061.18 c 3.5,135.07 155.7,651.26 162.2,664.08 0.9,1.83 -83.1,401.35 -83.1,401.35 -1.3,20.89 -22.4,36.03 -22.4,36.03 -404.7,-147.77 -516,27.09 -516,27.09 -0.5,0.43 -1.2,0.63 -1.9,0.72 -13.1,4.97 -92.7,35.12 -132.1,46.34 -42.9,12.23 -666.7,3.22 -690.9,0.54 -24.2,-2.69 -29.8,6 -29.8,6 l -203.2,173.66 c 9.4,-50.55 -110.4,-111.25 -188.3,-145.06 -36.9,-15.94 -64.4,-25.91 -64.4,-25.91 0,0 67.5,-84.09 189.2,-187.84 121.6,-103.73 159.2,-112.68 159.2,-112.68 0,0 479.4,-125.21 506.2,-130.58 6.1,-1.18 10.1,-5.31 12.7,-10.95 9.3,-19.64 1.9,-57.95 1.9,-57.95 l 0.1,0.06 c -42.2,-156.12 -29.2,-323.95 -14.9,-388.57 19.3,-86.74 9.7,-510.72 77.1,-717.93 67.5,-207.16 260.2,-255.36 448.1,-216.83 187.9,38.59 457.7,-77.07 558.9,-130.09 92.2,-48.26 204.2,-52.56 227.1,-1.98 2.3,4.93 3.7,10.41 4.2,16.47 4.8,67.45 -402.3,661.63 -399.9,754.03" /></g><g
         id="g394"><g
           clip-path="url(#clipPath400)"
           id="g396"><g
             transform="scale(1.74173)"
             id="g402"><path
               id="path404"
               style="fill:#d8a391;fill-opacity:1;fill-rule:nonzero;stroke:none"
               d="m 16213.9,5818.33 h 86.1 v -283.78 h -86.1" /></g></g></g><g
         transform="scale(1.76678)"
         id="g406"><path
           id="path408"
           style="fill:#e0ba5c;fill-opacity:1;fill-rule:nonzero;stroke:none"
           d="m 16295.8,4291.94 c -248.3,33.11 -584.1,629.79 -632,713.72 -51.5,89.88 260.2,706.81 337.3,732.54 9.1,3.02 17.9,4.35 26.4,4.35 11.7,0 22.8,-2.55 33.1,-6.71 1.1,-5.61 1.7,-8.75 1.6,-8.91 -3.1,-6.19 -40.2,-129.63 -78.1,-270.84 -40.7,-151.52 -82.4,-323.53 -84.2,-393.43 0,-0.28 0,-0.57 0,-0.85 0,-94.47 400.1,-679.2 400,-752.16 0,-0.45 0,-0.85 0,-1.25 -0.4,-6.05 -1.8,-11.54 -4.1,-16.46 v 0" /></g><g
         transform="scale(1.75623)"
         id="g410"><path
           id="path412"
           style="fill:#dcabb0;fill-opacity:1;fill-rule:nonzero;stroke:none"
           d="m 15574.9,6499.06 c 0,0 372.4,-188.7 486.4,45.01 113.9,233.71 238.7,366.77 5.8,497.12 -233,130.36 -323,63.88 -380,-4.89 -57,-68.75 -206.1,-482.14 -112.2,-537.24" /></g><g
         transform="scale(1.77035)"
         id="g414"><path
           id="path416"
           style="fill:#c4541c;fill-opacity:1;fill-rule:nonzero;stroke:none"
           d="m 15740.4,6987.06 c 0,0 112,-111.39 79.1,-217.2 -33,-105.82 20.3,-316.35 164.6,-340.4 144.4,-24.05 315.9,463.81 126,557.6 -189.9,93.79 -500.2,140.18 -594,22.34 -93.7,-117.85 -57.6,-266.84 -57.6,-266.84 0,0 129.9,251.72 281.9,244.5" /></g><g
         transform="scale(1.81522)"
         id="g418"><path
           id="path420"
           style="fill:#e6c86d;fill-opacity:1;fill-rule:nonzero;stroke:none"
           d="m 15530.8,5999.93 c 0,0 126.4,-28.95 182.2,-34.17 55.7,-5.23 238.7,-569.12 249.1,-621.34 10.5,-52.28 23.6,-104.51 23.6,-104.51 0,0 -1.8,-12.17 8.7,-15.7 10.4,-3.47 305.6,-107.2 305.6,-107.2 0,0 -78.6,-31.18 -100.9,-229.12 0,0 -319.7,35.92 -355.4,48.97 -35.7,13.06 -444.1,569.52 -444.1,569.52 l 131.2,493.55" /></g><g
         transform="scale(1.62556)"
         id="g422"><path
           id="path424"
           style="fill:#e0ba5c;fill-opacity:1;fill-rule:nonzero;stroke:none"
           d="m 16300,6310.04 c -0.1,0.19 -0.2,0.38 -0.2,0.56 -3,5.84 -7.3,10.09 -13.6,11.34 v 0 c -29.2,5.83 -550.4,141.96 -550.4,141.96 0,0 -0.3,0.08 -1.1,0.31 -7.2,2.34 -51.8,19.78 -172,122.2 -113.7,96.92 -183.9,178.07 -201.3,198.98 -2.9,3.42 -4.3,5.23 -4.3,5.23 0,0 29.9,10.85 70,28.18 80.6,-88.28 266.2,-285.77 314.6,-288.8 56,-3.45 554.7,-103.39 558.3,-219.96" /></g><path
         id="path426"
         style="fill:#e4c66e;fill-opacity:1;fill-rule:nonzero;stroke:none"
         d="m 12082.9,2710 c 0,19.1 -10.5,35.7 -26.8,35.7 -17,0 -25.9,-16.2 -25.9,-35.7 0,-19 10.5,-35.7 26.8,-35.7 17,0 25.9,16.7 25.9,35.7 z m -95.3,0 c 0,40.2 28,72.7 69.4,72.7 40.9,0 68.5,-32.1 68.5,-72.7 0,-39.7 -28,-72.6 -69.4,-72.6 -40.9,0 -68.5,32.1 -68.5,72.6 z m -79.1,145.3 c 0,19.1 -10.6,35.7 -26.8,35.7 -17.1,0 -26,-16.2 -26,-35.7 0,-19.1 10.6,-35.7 26.8,-35.7 17,0 26,16.6 26,35.7 z m 140.3,69.4 h 48.3 l -207.3,-284 h -48.3 z m -235.7,-69.4 c 0,40.1 28,72.6 69.4,72.6 41,0 68.6,-32 68.6,-72.6 0,-39.8 -28,-72.6 -69.4,-72.6 -41,0 -68.6,32 -68.6,72.6" /><path
         id="path428"
         style="fill:#e4c66e;fill-opacity:1;fill-rule:nonzero;stroke:none"
         d="m 12579.9,2357.7 c 0,19.1 -10.6,35.7 -26.8,35.7 -17.1,0 -26,-16.2 -26,-35.7 0,-19.1 10.6,-35.7 26.8,-35.7 17,0 26,16.6 26,35.7 z m -95.4,0 c 0,40.2 28,72.6 69.4,72.6 41,0 68.6,-32 68.6,-72.6 0,-39.8 -28,-72.6 -69.4,-72.6 -41,0 -68.6,32 -68.6,72.6 z m -79.1,145.3 c 0,19 -10.6,35.7 -26.8,35.7 -17,0 -26,-16.3 -26,-35.7 0,-19.1 10.6,-35.7 26.8,-35.7 17.1,0 26,16.6 26,35.7 z m 140.4,69.3 h 48.3 l -207.4,-284 h -48.3 z M 12310,2503 c 0,40.1 28,72.6 69.4,72.6 41,0 68.6,-32.1 68.6,-72.6 0,-39.8 -28,-72.7 -69.4,-72.7 -41,0 -68.6,32.1 -68.6,72.7" /><path
         id="path430"
         style="fill:#e4c66e;fill-opacity:1;fill-rule:nonzero;stroke:none"
         d="m 12579.9,3080 c 0,19 -10.6,35.7 -26.8,35.7 -17.1,0 -26,-16.3 -26,-35.7 0,-19.1 10.6,-35.8 26.8,-35.8 17,0 26,16.7 26,35.8 z m -95.4,0 c 0,40.1 28,72.6 69.4,72.6 41,0 68.6,-32.1 68.6,-72.6 0,-39.8 -28,-72.7 -69.4,-72.7 -41,0 -68.6,32.1 -68.6,72.7 z m -79.1,145.2 c 0,19.1 -10.6,35.7 -26.8,35.7 -17,0 -26,-16.2 -26,-35.7 0,-19.1 10.6,-35.7 26.8,-35.7 17.1,0 26,16.6 26,35.7 z m 140.4,69.4 h 48.3 l -207.4,-284 h -48.3 z m -235.8,-69.4 c 0,40.2 28,72.6 69.4,72.6 41,0 68.6,-32 68.6,-72.6 0,-39.8 -28,-72.6 -69.4,-72.6 -41,0 -68.6,32 -68.6,72.6" /><path
         id="path432"
         style="fill:#e4c66e;fill-opacity:1;fill-rule:nonzero;stroke:none"
         d="m 11599,3080 c 0,19 -10.6,35.7 -26.8,35.7 -17,0 -26,-16.3 -26,-35.7 0,-19.1 10.6,-35.8 26.8,-35.8 17.1,0 26,16.7 26,35.8 z m -95.4,0 c 0,40.1 28,72.6 69.4,72.6 41,0 68.6,-32.1 68.6,-72.6 0,-39.8 -28,-72.7 -69.4,-72.7 -41,0 -68.6,32.1 -68.6,72.7 z m -79.1,145.2 c 0,19.1 -10.5,35.7 -26.8,35.7 -17,0 -25.9,-16.2 -25.9,-35.7 0,-19.1 10.5,-35.7 26.7,-35.7 17.1,0 26,16.6 26,35.7 z m 140.4,69.4 h 48.3 l -207.3,-284 h -48.3 z m -235.7,-69.4 c 0,40.2 28,72.6 69.3,72.6 41,0 68.6,-32 68.6,-72.6 0,-39.8 -28,-72.6 -69.4,-72.6 -40.9,0 -68.5,32 -68.5,72.6" /><path
         id="path434"
         style="fill:#e4c66e;fill-opacity:1;fill-rule:nonzero;stroke:none"
         d="m 11650.8,2357.7 c 0,19.1 -10.6,35.7 -26.8,35.7 -17,0 -26,-16.2 -26,-35.7 0,-19.1 10.6,-35.7 26.8,-35.7 17.1,0 26,16.6 26,35.7 z m -95.4,0 c 0,40.2 28,72.6 69.4,72.6 41,0 68.6,-32 68.6,-72.6 0,-39.8 -28,-72.6 -69.4,-72.6 -41,0 -68.6,32 -68.6,72.6 z m -79.1,145.3 c 0,19 -10.5,35.7 -26.8,35.7 -17,0 -25.9,-16.3 -25.9,-35.7 0,-19.1 10.5,-35.7 26.8,-35.7 17,0 25.9,16.6 25.9,35.7 z m 140.4,69.3 h 48.3 l -207.3,-284 h -48.3 z M 11381,2503 c 0,40.1 28,72.6 69.4,72.6 40.9,0 68.5,-32.1 68.5,-72.6 0,-39.8 -28,-72.7 -69.4,-72.7 -40.9,0 -68.5,32.1 -68.5,72.7" /><g
         transform="scale(1.94739)"
         id="g436"><path
           id="path438"
           style="fill:#e4c66e;fill-opacity:1;fill-rule:nonzero;stroke:none"
           d="m 16249.1,3880.23 c -6.2,16.94 -21,28.29 -35.5,22.95 -15.1,-5.6 -17.7,-22.9 -11.3,-40.21 6.2,-16.99 21,-28.29 35.5,-23 15.1,5.59 17.6,23.31 11.3,40.26 z m -84.7,-31.23 c -13.2,35.69 1.1,73.69 37.9,87.25 36.4,13.45 71.4,-6.01 84.7,-42.06 13,-35.38 -1.1,-73.74 -37.9,-87.29 -36.4,-13.4 -71.4,6 -84.7,42.1 z m -15.8,210.85 42.8,15.82 -91.2,-320.38 -42.9,-15.82 z m -102.1,-107.68 c -6.2,16.94 -21.1,28.29 -35.5,22.95 -15.2,-5.54 -17.8,-22.9 -11.4,-40.21 6.3,-16.94 21.1,-28.29 35.5,-22.95 15.1,5.55 17.6,23.26 11.4,40.21 z m -84.7,-31.22 c -13.2,35.69 1,73.74 37.8,87.29 36.5,13.41 71.5,-6.06 84.8,-42.1 13,-35.33 -1.2,-73.74 -37.9,-87.3 -36.4,-13.4 -71.4,6.06 -84.7,42.11" /></g><g
         transform="scale(1.62005)"
         id="g440"><path
           id="path442"
           style="fill:#dbdff0;fill-opacity:1;fill-rule:nonzero;stroke:none"
           d="m 16093.6,8652.38 v 969.63 c 0,82.49 -70.1,149.97 -155.8,149.97 h -2881.7 c -85.6,0 -155.7,-67.48 -155.7,-149.97 v -969.63 c 0,-82.48 70.1,-149.97 155.7,-149.97 h 2016.4 l 1227.5,-601.22 -616.3,601.22 h 254.1 c 85.7,0 155.8,67.49 155.8,149.97" /></g><g
         transform="scale(1.35169)"
         id="g444"><path
           id="path446"
           style="fill:#b3b7d9;fill-opacity:1;fill-rule:nonzero;stroke:none"
           d="m 16001.8,10905.7 c -164.7,0 -298.2,128.5 -298.2,287.1 0,158.5 133.5,287.1 298.2,287.1 164.7,0 298.2,-128.6 298.2,-287.1 0,-158.6 -133.5,-287.1 -298.2,-287.1" /></g><g
         transform="scale(1.39216)"
         id="g448"><path
           id="path450"
           style="fill:#b3b7d9;fill-opacity:1;fill-rule:nonzero;stroke:none"
           d="m 16238.3,10719.7 -99.7,69.7 -99.8,-69.7 38.2,112.8 -99.8,69.8 h 123.3 l 38.1,112.9 38.1,-112.9 h 123.3 l -99.8,-69.8 38.1,-112.8" /></g><g
         transform="scale(1.42483)"
         id="g452"><path
           id="path454"
           style="fill:#b3b7d9;fill-opacity:1;fill-rule:nonzero;stroke:none"
           d="m 16239.7,10473.8 -97.4,68.2 -97.5,-68.2 37.3,110.3 -97.5,68.2 h 120.5 l 37.2,110.3 37.2,-110.3 h 120.5 l -97.5,-68.2 37.2,-110.3" /></g><g
         transform="scale(1.45751)"
         id="g456"><path
           id="path458"
           style="fill:#b3b7d9;fill-opacity:1;fill-rule:nonzero;stroke:none"
           d="m 16241.1,10239 -95.3,66.7 -95.3,-66.7 36.5,107.8 -95.3,66.7 h 117.8 l 36.3,107.8 36.4,-107.8 h 117.8 l -95.3,-66.7 36.4,-107.8" /></g><g
         transform="scale(1.49018)"
         id="g460"><path
           id="path462"
           style="fill:#b3b7d9;fill-opacity:1;fill-rule:nonzero;stroke:none"
           d="m 16242.4,10014.5 -93.2,65.2 -93.1,-65.2 35.5,105.5 -93.2,65.2 h 115.2 l 35.6,105.4 35.6,-105.4 h 115.2 l -93.2,-65.2 35.6,-105.5" /></g><g
         transform="scale(1.52286)"
         id="g464"><path
           id="path466"
           style="fill:#b3b7d9;fill-opacity:1;fill-rule:nonzero;stroke:none"
           d="m 16243.7,9799.65 -91.3,63.77 -91.1,-63.77 34.8,103.19 -91.2,63.79 h 112.7 l 34.8,103.17 34.9,-103.17 h 112.7 l -91.2,-63.79 34.9,-103.19" /></g><g
         transform="scale(1.58521)"
         id="g468"><path
           id="path470"
           style="fill:#b3b7d9;fill-opacity:1;fill-rule:nonzero;stroke:none"
           d="m 16261.5,9065.13 h -2832.7 c -21.2,0 -38.6,17.34 -38.6,38.52 v 18.83 c 0,21.18 17.4,38.51 38.6,38.51 h 2832.7 c 21.2,0 38.5,-17.33 38.5,-38.51 v -18.83 c 0,-21.18 -17.3,-38.52 -38.5,-38.52" /></g><g
         transform="scale(1.58521)"
         id="g472"><path
           id="path474"
           style="fill:#b3b7d9;fill-opacity:1;fill-rule:nonzero;stroke:none"
           d="m 16261.5,8855.7 h -2832.7 c -21.2,0 -38.6,17.33 -38.6,38.52 v 18.81 c 0,21.19 17.4,38.52 38.6,38.52 h 2832.7 c 21.2,0 38.5,-17.33 38.5,-38.52 v -18.81 c 0,-21.19 -17.3,-38.52 -38.5,-38.52" /></g><path
         id="path476"
         style="fill:#dbdff0;fill-opacity:1;fill-rule:nonzero;stroke:none"
         d="m 7027.08,12869.3 v 1139.5 c 0,97 82.37,176.3 183.07,176.3 h 3386.65 c 100.7,0 183.1,-79.3 183.1,-176.3 v -1139.5 c 0,-97 -82.4,-176.3 -183.1,-176.3 H 8227.07 l -1442.6,-706.6 724.26,706.6 h -298.58 c -100.7,0 -183.07,79.3 -183.07,176.3" /><path
         id="path478"
         style="fill:#b3b7d9;fill-opacity:1;fill-rule:nonzero;stroke:none"
         d="m 7496.78,13394.4 c -161.49,0 -292.41,126 -292.41,281.5 0,155.5 130.92,281.5 292.41,281.5 161.49,0 292.41,-126 292.41,-281.5 0,-155.5 -130.92,-281.5 -292.41,-281.5" /><path
         id="path480"
         style="fill:#b3b7d9;fill-opacity:1;fill-rule:nonzero;stroke:none"
         d="m 9776.6,13526.7 -100.73,70.4 -100.73,-70.4 38.47,114 -100.73,70.4 h 124.51 l 38.48,114 38.47,-114 h 124.52 l -100.74,-70.4 38.48,-114" /><path
         id="path482"
         style="fill:#b3b7d9;fill-opacity:1;fill-rule:nonzero;stroke:none"
         d="m 9390.22,13526.7 -100.73,70.4 -100.74,-70.4 38.48,114 -100.73,70.4 h 124.51 l 38.48,114 38.47,-114 h 124.52 l -100.74,-70.4 38.48,-114" /><path
         id="path484"
         style="fill:#b3b7d9;fill-opacity:1;fill-rule:nonzero;stroke:none"
         d="m 9003.83,13526.7 -100.72,70.4 -100.74,-70.4 38.48,114 -100.73,70.4 h 124.51 l 38.48,114 38.47,-114 h 124.52 l -100.74,-70.4 38.47,-114" /><path
         id="path486"
         style="fill:#b3b7d9;fill-opacity:1;fill-rule:nonzero;stroke:none"
         d="m 8617.45,13526.7 -100.72,70.4 -100.74,-70.4 38.47,114 -100.72,70.4 h 124.5 l 38.49,114 38.47,-114 h 124.51 l -100.73,-70.4 38.47,-114" /><path
         id="path488"
         style="fill:#b3b7d9;fill-opacity:1;fill-rule:nonzero;stroke:none"
         d="m 8231.07,13526.7 -100.73,70.4 -100.73,-70.4 38.47,114 -100.72,70.4 h 124.5 l 38.48,114 38.48,-114 h 124.51 l -100.73,-70.4 38.47,-114" /><path
         id="path490"
         style="fill:#b3b7d9;fill-opacity:1;fill-rule:nonzero;stroke:none"
         d="M 10498.3,13125.3 H 7240.68 c -24.37,0 -44.3,19.9 -44.3,44.3 v 21.6 c 0,24.4 19.93,44.3 44.3,44.3 h 3257.62 c 24.3,0 44.3,-19.9 44.3,-44.3 v -21.6 c 0,-24.4 -20,-44.3 -44.3,-44.3" /><path
         id="path492"
         style="fill:#b3b7d9;fill-opacity:1;fill-rule:nonzero;stroke:none"
         d="M 10498.3,12884.4 H 7240.68 c -24.37,0 -44.3,19.9 -44.3,44.3 v 21.7 c 0,24.3 19.93,44.2 44.3,44.2 h 3257.62 c 24.3,0 44.3,-19.9 44.3,-44.2 v -21.7 c 0,-24.4 -20,-44.3 -44.3,-44.3" /></g></g></svg>